<mxfile host="Electron" modified="2024-05-20T11:59:51.067Z" agent="Mozilla/5.0 (Windows NT 10.0; Win64; x64) AppleWebKit/537.36 (KHTML, like Gecko) draw.io/23.1.5 Chrome/120.0.6099.109 Electron/28.1.0 Safari/537.36" etag="Lad45EePmmHyUydcMik8" version="23.1.5" type="device">
  <diagram name="Page-1" id="IXlKD5Xis-MbpnFbSpk0">
    <mxGraphModel dx="1863" dy="606" grid="1" gridSize="10" guides="1" tooltips="1" connect="1" arrows="1" fold="1" page="1" pageScale="1" pageWidth="827" pageHeight="1169" math="0" shadow="0">
      <root>
        <mxCell id="0" />
        <mxCell id="1" parent="0" />
        <mxCell id="D0R8P8FJwQhQO96Lrs1c-10" value="cbi:affects" style="edgeStyle=orthogonalEdgeStyle;rounded=0;orthogonalLoop=1;jettySize=auto;html=1;" parent="1" source="D0R8P8FJwQhQO96Lrs1c-2" target="D0R8P8FJwQhQO96Lrs1c-3" edge="1">
          <mxGeometry relative="1" as="geometry" />
        </mxCell>
        <mxCell id="D0R8P8FJwQhQO96Lrs1c-15" value="rdfs:subClassOf" style="edgeStyle=orthogonalEdgeStyle;rounded=0;orthogonalLoop=1;jettySize=auto;html=1;exitX=0;exitY=0.5;exitDx=0;exitDy=0;entryX=1;entryY=0.5;entryDx=0;entryDy=0;" parent="1" source="D0R8P8FJwQhQO96Lrs1c-2" target="D0R8P8FJwQhQO96Lrs1c-14" edge="1">
          <mxGeometry relative="1" as="geometry">
            <mxPoint x="90" y="310" as="targetPoint" />
            <mxPoint as="offset" />
          </mxGeometry>
        </mxCell>
        <mxCell id="D0R8P8FJwQhQO96Lrs1c-17" value="cbi:isBasedOn" style="edgeStyle=orthogonalEdgeStyle;rounded=0;orthogonalLoop=1;jettySize=auto;html=1;entryX=0.5;entryY=1;entryDx=0;entryDy=0;" parent="1" source="D0R8P8FJwQhQO96Lrs1c-2" target="D0R8P8FJwQhQO96Lrs1c-7" edge="1">
          <mxGeometry relative="1" as="geometry" />
        </mxCell>
        <mxCell id="D0R8P8FJwQhQO96Lrs1c-2" value="cbi:AvailabilityBias" style="rounded=1;arcSize=10;whiteSpace=wrap;html=1;align=center;fillColor=#f0a30a;strokeColor=#BD7000;fontColor=#000000;" parent="1" vertex="1">
          <mxGeometry x="240" y="200" width="120" height="50" as="geometry" />
        </mxCell>
        <mxCell id="D0R8P8FJwQhQO96Lrs1c-3" value="cbi:CognitiveProcess" style="rounded=1;arcSize=10;whiteSpace=wrap;html=1;align=center;fillColor=#f0a30a;strokeColor=#BD7000;fontColor=#000000;" parent="1" vertex="1">
          <mxGeometry x="490" y="200" width="140" height="50" as="geometry" />
        </mxCell>
        <mxCell id="D0R8P8FJwQhQO96Lrs1c-11" value="observation:producedObservation" style="edgeStyle=orthogonalEdgeStyle;rounded=0;orthogonalLoop=1;jettySize=auto;html=1;" parent="1" source="D0R8P8FJwQhQO96Lrs1c-4" target="D0R8P8FJwQhQO96Lrs1c-5" edge="1">
          <mxGeometry relative="1" as="geometry" />
        </mxCell>
        <mxCell id="D0R8P8FJwQhQO96Lrs1c-12" value="cbi:affectedBy" style="edgeStyle=orthogonalEdgeStyle;rounded=0;orthogonalLoop=1;jettySize=auto;html=1;" parent="1" source="D0R8P8FJwQhQO96Lrs1c-4" target="D0R8P8FJwQhQO96Lrs1c-2" edge="1">
          <mxGeometry relative="1" as="geometry">
            <mxPoint as="offset" />
          </mxGeometry>
        </mxCell>
        <mxCell id="Ca-spO1f_c3vwjH_ev9k-2" style="edgeStyle=orthogonalEdgeStyle;rounded=0;orthogonalLoop=1;jettySize=auto;html=1;exitX=0;exitY=0.5;exitDx=0;exitDy=0;entryX=1;entryY=0.5;entryDx=0;entryDy=0;" parent="1" source="D0R8P8FJwQhQO96Lrs1c-4" target="Ca-spO1f_c3vwjH_ev9k-1" edge="1">
          <mxGeometry relative="1" as="geometry" />
        </mxCell>
        <mxCell id="Ca-spO1f_c3vwjH_ev9k-3" value="classification:isClassifiedBy" style="edgeLabel;html=1;align=center;verticalAlign=middle;resizable=0;points=[];" parent="Ca-spO1f_c3vwjH_ev9k-2" vertex="1" connectable="0">
          <mxGeometry x="0.2381" y="1" relative="1" as="geometry">
            <mxPoint x="25" y="-1" as="offset" />
          </mxGeometry>
        </mxCell>
        <mxCell id="D0R8P8FJwQhQO96Lrs1c-4" value="cbi:BiasedAgent" style="rounded=1;arcSize=10;whiteSpace=wrap;html=1;align=center;fillColor=#f0a30a;strokeColor=#BD7000;fontColor=#000000;" parent="1" vertex="1">
          <mxGeometry x="230" y="350" width="140" height="50" as="geometry" />
        </mxCell>
        <mxCell id="D0R8P8FJwQhQO96Lrs1c-13" value="sql:from" style="edgeStyle=orthogonalEdgeStyle;rounded=0;orthogonalLoop=1;jettySize=auto;html=1;" parent="1" source="D0R8P8FJwQhQO96Lrs1c-5" target="D0R8P8FJwQhQO96Lrs1c-6" edge="1">
          <mxGeometry relative="1" as="geometry" />
        </mxCell>
        <mxCell id="D0R8P8FJwQhQO96Lrs1c-5" value="observation:Observation" style="rounded=1;arcSize=10;whiteSpace=wrap;html=1;align=center;fillColor=#f0a30a;strokeColor=#BD7000;fontColor=#000000;" parent="1" vertex="1">
          <mxGeometry x="650" y="350" width="150" height="50" as="geometry" />
        </mxCell>
        <mxCell id="D0R8P8FJwQhQO96Lrs1c-6" value="fs:Event" style="rounded=1;arcSize=10;whiteSpace=wrap;html=1;align=center;fillColor=#f0a30a;strokeColor=#BD7000;fontColor=#000000;" parent="1" vertex="1">
          <mxGeometry x="680" y="100" width="90" height="50" as="geometry" />
        </mxCell>
        <mxCell id="D0R8P8FJwQhQO96Lrs1c-7" value="fs:Information" style="rounded=1;arcSize=10;whiteSpace=wrap;html=1;align=center;fillColor=#f0a30a;strokeColor=#BD7000;fontColor=#000000;" parent="1" vertex="1">
          <mxGeometry x="230" y="70" width="140" height="50" as="geometry" />
        </mxCell>
        <mxCell id="D0R8P8FJwQhQO96Lrs1c-14" value="cbi:CognitiveBias" style="rounded=1;arcSize=10;whiteSpace=wrap;html=1;align=center;fillColor=#f0a30a;strokeColor=#BD7000;fontColor=#000000;" parent="1" vertex="1">
          <mxGeometry x="-80" y="200" width="140" height="50" as="geometry" />
        </mxCell>
        <mxCell id="Ca-spO1f_c3vwjH_ev9k-1" value="fs:People" style="rounded=1;arcSize=10;whiteSpace=wrap;html=1;align=center;fillColor=#f0a30a;strokeColor=#BD7000;fontColor=#000000;" parent="1" vertex="1">
          <mxGeometry x="-80" y="350" width="140" height="50" as="geometry" />
        </mxCell>
        <mxCell id="cG3D01kCu9LvQyQK5zfU-1" value="&lt;p style=&quot;margin: 4px 0px 0px; text-decoration: underline; font-size: 11px;&quot;&gt;&lt;b&gt;&lt;font style=&quot;font-size: 11px;&quot;&gt;Prefixes&lt;/font&gt;&lt;/b&gt;&lt;/p&gt;&lt;hr style=&quot;font-size: 11px;&quot;&gt;&lt;p style=&quot;text-align: left; margin: 0px 0px 0px 8px; font-size: 11px;&quot;&gt;&lt;font style=&quot;font-size: 11px;&quot;&gt;&lt;span style=&quot;background-color: initial;&quot;&gt;fs:&amp;nbsp;&lt;/span&gt;&lt;a style=&quot;background: transparent; margin: 0px 8px 8px 0px; padding: 0px; vertical-align: baseline; display: inline-block;&quot; class=&quot;iri&quot; href=&quot;https://w3id.org/framester/data/framestercore/Preference&quot;&gt;&lt;font style=&quot;font-size: 11px;&quot; color=&quot;#000000&quot;&gt;https://w3id.org/framester/data/framestercore&lt;/font&gt;&lt;/a&gt;&lt;br&gt;&lt;/font&gt;&lt;/p&gt;&lt;p style=&quot;text-align: left; margin: 0px 0px 0px 8px; font-size: 11px;&quot;&gt;&lt;span style=&quot;background-color: initial;&quot;&gt;&lt;font style=&quot;font-size: 11px;&quot;&gt;cbi:&amp;nbsp;&lt;/font&gt;&lt;/span&gt;&lt;span style=&quot;background-color: initial; font-size: 12px;&quot;&gt;https://github.com/ranacoskun/cognitive_bias_ontology&lt;/span&gt;&lt;/p&gt;&lt;p style=&quot;text-align: left; margin: 0px 0px 0px 8px; font-size: 11px;&quot;&gt;&lt;font style=&quot;font-size: 11px;&quot;&gt;rdfs: https://www.w3.org/2000/01/rdf-schema#&lt;/font&gt;&lt;/p&gt;&lt;p style=&quot;text-align: left; margin: 0px 0px 0px 8px; font-size: 11px;&quot;&gt;&lt;font style=&quot;font-size: 11px;&quot;&gt;&lt;span style=&quot;background-color: initial;&quot;&gt;classification:&amp;nbsp;http://www.ontologydesignpatterns.org/cp/owl/classification.owl&amp;nbsp;&lt;/span&gt;&lt;/font&gt;&lt;/p&gt;&lt;p style=&quot;text-align: left; margin: 0px 0px 0px 8px; font-size: 11px;&quot;&gt; sql: &lt;a style=&quot;color: rgb(17, 85, 204); font-family: Arial; font-size: 13px; text-decoration-skip-ink: none;&quot; class=&quot;waffle-rich-text-link&quot; href=&quot;http://ns.inria.fr/ast/sql&quot;&gt;http://ns.inria.fr/ast/sql&lt;/a&gt;&lt;br&gt;&lt;/p&gt;&lt;p style=&quot;text-align: left; margin: 0px 0px 0px 8px; font-size: 11px;&quot;&gt;observation:&lt;a style=&quot;font-size: 12px; text-decoration-line: none; color: rgb(51, 102, 187); background: url(&amp;quot;external.png&amp;quot;) right center no-repeat; padding-right: 13px;&quot; rel=&quot;nofollow&quot; title=&quot;http://modellingdh.github.io/ont/odp/term/&quot; class=&quot;external free&quot; href=&quot;http://modellingdh.github.io/ont/odp/term/&quot;&gt;http://modellingdh.github.io/ont/odp/term/&lt;/a&gt;&lt;/p&gt;" style="verticalAlign=top;align=center;overflow=fill;html=1;whiteSpace=wrap;" parent="1" vertex="1">
          <mxGeometry x="-232" y="40" width="444" height="135" as="geometry" />
        </mxCell>
      </root>
    </mxGraphModel>
  </diagram>
</mxfile>
